<mxfile host="app.diagrams.net" agent="Mozilla/5.0 (Windows NT 10.0; Win64; x64) AppleWebKit/537.36 (KHTML, like Gecko) Chrome/138.0.0.0 Safari/537.36" version="28.0.7">
  <diagram name="Pagina-1" id="DiGROShBe6_BHW7J8G3q">
    <mxGraphModel dx="4753" dy="3666" grid="1" gridSize="10" guides="1" tooltips="1" connect="1" arrows="1" fold="1" page="1" pageScale="1" pageWidth="827" pageHeight="1169" math="0" shadow="0">
      <root>
        <mxCell id="0" />
        <mxCell id="1" parent="0" />
        <mxCell id="_CnHaBAXVkDHwyhgGVDt-2" style="edgeStyle=orthogonalEdgeStyle;rounded=0;orthogonalLoop=1;jettySize=auto;html=1;" parent="1" source="_CnHaBAXVkDHwyhgGVDt-1" target="_CnHaBAXVkDHwyhgGVDt-3" edge="1">
          <mxGeometry relative="1" as="geometry">
            <mxPoint x="750" y="-230" as="targetPoint" />
          </mxGeometry>
        </mxCell>
        <mxCell id="_CnHaBAXVkDHwyhgGVDt-1" value="START" style="ellipse;whiteSpace=wrap;html=1;" parent="1" vertex="1">
          <mxGeometry x="680" y="-370" width="140" height="50" as="geometry" />
        </mxCell>
        <mxCell id="_CnHaBAXVkDHwyhgGVDt-4" style="edgeStyle=orthogonalEdgeStyle;rounded=0;orthogonalLoop=1;jettySize=auto;html=1;" parent="1" source="_CnHaBAXVkDHwyhgGVDt-3" edge="1">
          <mxGeometry relative="1" as="geometry">
            <mxPoint x="750" y="-190" as="targetPoint" />
          </mxGeometry>
        </mxCell>
        <mxCell id="_CnHaBAXVkDHwyhgGVDt-3" value="Prompt player to insert relevant data" style="rounded=0;whiteSpace=wrap;html=1;" parent="1" vertex="1">
          <mxGeometry x="690" y="-290" width="120" height="40" as="geometry" />
        </mxCell>
        <mxCell id="_CnHaBAXVkDHwyhgGVDt-8" style="edgeStyle=orthogonalEdgeStyle;rounded=0;orthogonalLoop=1;jettySize=auto;html=1;" parent="1" source="_CnHaBAXVkDHwyhgGVDt-6" edge="1">
          <mxGeometry relative="1" as="geometry">
            <mxPoint x="750" y="-110" as="targetPoint" />
          </mxGeometry>
        </mxCell>
        <mxCell id="_CnHaBAXVkDHwyhgGVDt-6" value="Press start" style="rounded=0;whiteSpace=wrap;html=1;" parent="1" vertex="1">
          <mxGeometry x="690" y="-220" width="120" height="50" as="geometry" />
        </mxCell>
        <mxCell id="_CnHaBAXVkDHwyhgGVDt-11" style="edgeStyle=orthogonalEdgeStyle;rounded=0;orthogonalLoop=1;jettySize=auto;html=1;exitX=0.5;exitY=1;exitDx=0;exitDy=0;" parent="1" source="4pX8vZohO5UuYpyCai0n-75" target="_CnHaBAXVkDHwyhgGVDt-12" edge="1">
          <mxGeometry relative="1" as="geometry">
            <mxPoint x="750" y="340" as="targetPoint" />
            <mxPoint x="750" y="230" as="sourcePoint" />
          </mxGeometry>
        </mxCell>
        <mxCell id="4pX8vZohO5UuYpyCai0n-26" value="await 3s" style="edgeLabel;html=1;align=center;verticalAlign=middle;resizable=0;points=[];" vertex="1" connectable="0" parent="_CnHaBAXVkDHwyhgGVDt-11">
          <mxGeometry x="-0.1667" y="3" relative="1" as="geometry">
            <mxPoint as="offset" />
          </mxGeometry>
        </mxCell>
        <mxCell id="4pX8vZohO5UuYpyCai0n-78" value="yes" style="edgeLabel;html=1;align=center;verticalAlign=middle;resizable=0;points=[];" vertex="1" connectable="0" parent="_CnHaBAXVkDHwyhgGVDt-11">
          <mxGeometry x="-0.6653" y="1" relative="1" as="geometry">
            <mxPoint as="offset" />
          </mxGeometry>
        </mxCell>
        <mxCell id="4pX8vZohO5UuYpyCai0n-81" style="edgeStyle=orthogonalEdgeStyle;rounded=0;orthogonalLoop=1;jettySize=auto;html=1;entryX=0.5;entryY=0;entryDx=0;entryDy=0;" edge="1" parent="1" source="_CnHaBAXVkDHwyhgGVDt-10" target="4pX8vZohO5UuYpyCai0n-80">
          <mxGeometry relative="1" as="geometry" />
        </mxCell>
        <mxCell id="4pX8vZohO5UuYpyCai0n-82" value="await 1s" style="edgeLabel;html=1;align=center;verticalAlign=middle;resizable=0;points=[];" vertex="1" connectable="0" parent="4pX8vZohO5UuYpyCai0n-81">
          <mxGeometry x="-0.0667" y="1" relative="1" as="geometry">
            <mxPoint as="offset" />
          </mxGeometry>
        </mxCell>
        <mxCell id="_CnHaBAXVkDHwyhgGVDt-10" value="Force set bet to 0.10" style="rounded=0;whiteSpace=wrap;html=1;" parent="1" vertex="1">
          <mxGeometry x="690" y="-140" width="120" height="50" as="geometry" />
        </mxCell>
        <mxCell id="_CnHaBAXVkDHwyhgGVDt-13" style="edgeStyle=orthogonalEdgeStyle;rounded=0;orthogonalLoop=1;jettySize=auto;html=1;" parent="1" source="_CnHaBAXVkDHwyhgGVDt-12" edge="1">
          <mxGeometry relative="1" as="geometry">
            <mxPoint x="750" y="410" as="targetPoint" />
          </mxGeometry>
        </mxCell>
        <mxCell id="_CnHaBAXVkDHwyhgGVDt-12" value="press play_collect" style="rounded=0;whiteSpace=wrap;html=1;" parent="1" vertex="1">
          <mxGeometry x="690" y="330" width="120" height="50" as="geometry" />
        </mxCell>
        <mxCell id="_CnHaBAXVkDHwyhgGVDt-15" style="edgeStyle=orthogonalEdgeStyle;rounded=0;orthogonalLoop=1;jettySize=auto;html=1;entryX=0.5;entryY=0;entryDx=0;entryDy=0;" parent="1" edge="1" target="_CnHaBAXVkDHwyhgGVDt-16">
          <mxGeometry relative="1" as="geometry">
            <mxPoint x="750" y="665" as="targetPoint" />
            <mxPoint x="750" y="635" as="sourcePoint" />
          </mxGeometry>
        </mxCell>
        <mxCell id="4pX8vZohO5UuYpyCai0n-27" value="await 3s" style="edgeLabel;html=1;align=center;verticalAlign=middle;resizable=0;points=[];" vertex="1" connectable="0" parent="_CnHaBAXVkDHwyhgGVDt-15">
          <mxGeometry x="-0.2415" y="3" relative="1" as="geometry">
            <mxPoint as="offset" />
          </mxGeometry>
        </mxCell>
        <mxCell id="_CnHaBAXVkDHwyhgGVDt-18" value="await 5s" style="edgeStyle=orthogonalEdgeStyle;rounded=0;orthogonalLoop=1;jettySize=auto;html=1;" parent="1" source="_CnHaBAXVkDHwyhgGVDt-16" target="_CnHaBAXVkDHwyhgGVDt-17" edge="1">
          <mxGeometry relative="1" as="geometry" />
        </mxCell>
        <mxCell id="_CnHaBAXVkDHwyhgGVDt-16" value="Click on the corresponding tile" style="rounded=0;whiteSpace=wrap;html=1;" parent="1" vertex="1">
          <mxGeometry x="690" y="690" width="120" height="50" as="geometry" />
        </mxCell>
        <mxCell id="_CnHaBAXVkDHwyhgGVDt-20" value="" style="edgeStyle=orthogonalEdgeStyle;rounded=0;orthogonalLoop=1;jettySize=auto;html=1;" parent="1" source="_CnHaBAXVkDHwyhgGVDt-17" target="_CnHaBAXVkDHwyhgGVDt-19" edge="1">
          <mxGeometry relative="1" as="geometry" />
        </mxCell>
        <mxCell id="_CnHaBAXVkDHwyhgGVDt-17" value="check color of the tile" style="whiteSpace=wrap;html=1;rounded=0;" parent="1" vertex="1">
          <mxGeometry x="690" y="790" width="120" height="60" as="geometry" />
        </mxCell>
        <mxCell id="_CnHaBAXVkDHwyhgGVDt-22" value="yes" style="edgeStyle=orthogonalEdgeStyle;rounded=0;orthogonalLoop=1;jettySize=auto;html=1;" parent="1" source="_CnHaBAXVkDHwyhgGVDt-19" edge="1">
          <mxGeometry relative="1" as="geometry">
            <mxPoint x="750" y="1030" as="targetPoint" />
          </mxGeometry>
        </mxCell>
        <mxCell id="_CnHaBAXVkDHwyhgGVDt-24" value="" style="edgeStyle=orthogonalEdgeStyle;rounded=0;orthogonalLoop=1;jettySize=auto;html=1;" parent="1" source="_CnHaBAXVkDHwyhgGVDt-19" target="_CnHaBAXVkDHwyhgGVDt-23" edge="1">
          <mxGeometry relative="1" as="geometry" />
        </mxCell>
        <mxCell id="4pX8vZohO5UuYpyCai0n-21" value="no" style="edgeLabel;html=1;align=center;verticalAlign=middle;resizable=0;points=[];" vertex="1" connectable="0" parent="_CnHaBAXVkDHwyhgGVDt-24">
          <mxGeometry x="-0.275" y="-1" relative="1" as="geometry">
            <mxPoint as="offset" />
          </mxGeometry>
        </mxCell>
        <mxCell id="_CnHaBAXVkDHwyhgGVDt-19" value="is tile blue?" style="rhombus;whiteSpace=wrap;html=1;rounded=0;" parent="1" vertex="1">
          <mxGeometry x="690" y="890" width="120" height="60" as="geometry" />
        </mxCell>
        <mxCell id="_CnHaBAXVkDHwyhgGVDt-26" value="" style="edgeStyle=orthogonalEdgeStyle;rounded=0;orthogonalLoop=1;jettySize=auto;html=1;" parent="1" source="_CnHaBAXVkDHwyhgGVDt-23" target="_CnHaBAXVkDHwyhgGVDt-25" edge="1">
          <mxGeometry relative="1" as="geometry" />
        </mxCell>
        <mxCell id="_CnHaBAXVkDHwyhgGVDt-27" value="yes" style="edgeLabel;html=1;align=center;verticalAlign=middle;resizable=0;points=[];" parent="_CnHaBAXVkDHwyhgGVDt-26" vertex="1" connectable="0">
          <mxGeometry x="-0.175" y="3" relative="1" as="geometry">
            <mxPoint as="offset" />
          </mxGeometry>
        </mxCell>
        <mxCell id="4pX8vZohO5UuYpyCai0n-23" value="" style="edgeStyle=orthogonalEdgeStyle;rounded=0;orthogonalLoop=1;jettySize=auto;html=1;entryX=1;entryY=0.5;entryDx=0;entryDy=0;" edge="1" parent="1" source="_CnHaBAXVkDHwyhgGVDt-23" target="_CnHaBAXVkDHwyhgGVDt-17">
          <mxGeometry relative="1" as="geometry">
            <mxPoint x="950" y="780" as="targetPoint" />
            <Array as="points">
              <mxPoint x="950" y="820" />
            </Array>
          </mxGeometry>
        </mxCell>
        <mxCell id="4pX8vZohO5UuYpyCai0n-24" value="no" style="edgeLabel;html=1;align=center;verticalAlign=middle;resizable=0;points=[];" vertex="1" connectable="0" parent="4pX8vZohO5UuYpyCai0n-23">
          <mxGeometry x="-0.05" y="-1" relative="1" as="geometry">
            <mxPoint as="offset" />
          </mxGeometry>
        </mxCell>
        <mxCell id="_CnHaBAXVkDHwyhgGVDt-23" value="is tile red?" style="rhombus;whiteSpace=wrap;html=1;rounded=0;" parent="1" vertex="1">
          <mxGeometry x="890" y="890" width="120" height="60" as="geometry" />
        </mxCell>
        <mxCell id="4pX8vZohO5UuYpyCai0n-54" style="edgeStyle=orthogonalEdgeStyle;rounded=0;orthogonalLoop=1;jettySize=auto;html=1;" edge="1" parent="1" source="_CnHaBAXVkDHwyhgGVDt-25">
          <mxGeometry relative="1" as="geometry">
            <mxPoint x="955" y="1110" as="targetPoint" />
          </mxGeometry>
        </mxCell>
        <mxCell id="_CnHaBAXVkDHwyhgGVDt-25" value="try++" style="rounded=0;whiteSpace=wrap;html=1;" parent="1" vertex="1">
          <mxGeometry x="890" y="1030" width="130" height="40" as="geometry" />
        </mxCell>
        <mxCell id="4pX8vZohO5UuYpyCai0n-5" value="" style="edgeStyle=orthogonalEdgeStyle;rounded=0;orthogonalLoop=1;jettySize=auto;html=1;" edge="1" parent="1" source="4pX8vZohO5UuYpyCai0n-1">
          <mxGeometry relative="1" as="geometry">
            <mxPoint x="750" y="1120" as="targetPoint" />
          </mxGeometry>
        </mxCell>
        <mxCell id="4pX8vZohO5UuYpyCai0n-1" value="picks ++" style="rounded=0;whiteSpace=wrap;html=1;" vertex="1" parent="1">
          <mxGeometry x="690" y="1030" width="120" height="40" as="geometry" />
        </mxCell>
        <mxCell id="4pX8vZohO5UuYpyCai0n-18" value="no&lt;div&gt;&lt;br&gt;&lt;/div&gt;" style="edgeStyle=orthogonalEdgeStyle;rounded=0;orthogonalLoop=1;jettySize=auto;html=1;entryX=0;entryY=0.5;entryDx=0;entryDy=0;" edge="1" parent="1" source="4pX8vZohO5UuYpyCai0n-4" target="4pX8vZohO5UuYpyCai0n-13">
          <mxGeometry relative="1" as="geometry">
            <mxPoint x="620" y="750" as="targetPoint" />
            <Array as="points">
              <mxPoint x="590" y="1155" />
              <mxPoint x="590" y="435" />
            </Array>
          </mxGeometry>
        </mxCell>
        <mxCell id="4pX8vZohO5UuYpyCai0n-20" value="yes" style="edgeStyle=orthogonalEdgeStyle;rounded=0;orthogonalLoop=1;jettySize=auto;html=1;" edge="1" parent="1" source="4pX8vZohO5UuYpyCai0n-4" target="4pX8vZohO5UuYpyCai0n-19">
          <mxGeometry relative="1" as="geometry" />
        </mxCell>
        <mxCell id="4pX8vZohO5UuYpyCai0n-28" value="await 3s" style="edgeLabel;html=1;align=center;verticalAlign=middle;resizable=0;points=[];" vertex="1" connectable="0" parent="4pX8vZohO5UuYpyCai0n-20">
          <mxGeometry x="0.3565" y="4" relative="1" as="geometry">
            <mxPoint as="offset" />
          </mxGeometry>
        </mxCell>
        <mxCell id="4pX8vZohO5UuYpyCai0n-4" value="is picks 3?" style="rhombus;whiteSpace=wrap;html=1;rounded=0;" vertex="1" parent="1">
          <mxGeometry x="690" y="1125" width="120" height="60" as="geometry" />
        </mxCell>
        <mxCell id="4pX8vZohO5UuYpyCai0n-12" value="" style="edgeStyle=orthogonalEdgeStyle;rounded=0;orthogonalLoop=1;jettySize=auto;html=1;" edge="1" parent="1" source="4pX8vZohO5UuYpyCai0n-13" target="4pX8vZohO5UuYpyCai0n-16">
          <mxGeometry relative="1" as="geometry" />
        </mxCell>
        <mxCell id="4pX8vZohO5UuYpyCai0n-13" value="Generate random number from 1 to 25" style="rounded=0;whiteSpace=wrap;html=1;" vertex="1" parent="1">
          <mxGeometry x="690" y="410" width="120" height="50" as="geometry" />
        </mxCell>
        <mxCell id="4pX8vZohO5UuYpyCai0n-14" value="yes" style="edgeStyle=orthogonalEdgeStyle;rounded=0;orthogonalLoop=1;jettySize=auto;html=1;entryX=0;entryY=0.5;entryDx=0;entryDy=0;" edge="1" parent="1" source="4pX8vZohO5UuYpyCai0n-16" target="4pX8vZohO5UuYpyCai0n-13">
          <mxGeometry relative="1" as="geometry">
            <mxPoint x="640" y="435" as="targetPoint" />
            <Array as="points">
              <mxPoint x="630" y="525" />
              <mxPoint x="630" y="440" />
            </Array>
          </mxGeometry>
        </mxCell>
        <mxCell id="4pX8vZohO5UuYpyCai0n-15" value="no" style="edgeStyle=orthogonalEdgeStyle;rounded=0;orthogonalLoop=1;jettySize=auto;html=1;" edge="1" parent="1" source="4pX8vZohO5UuYpyCai0n-16" target="4pX8vZohO5UuYpyCai0n-17">
          <mxGeometry relative="1" as="geometry" />
        </mxCell>
        <mxCell id="4pX8vZohO5UuYpyCai0n-16" value="has it already been drawn?" style="rhombus;whiteSpace=wrap;html=1;rounded=0;" vertex="1" parent="1">
          <mxGeometry x="690" y="495" width="120" height="60" as="geometry" />
        </mxCell>
        <mxCell id="4pX8vZohO5UuYpyCai0n-17" value="save it" style="whiteSpace=wrap;html=1;rounded=0;" vertex="1" parent="1">
          <mxGeometry x="690" y="595" width="120" height="40" as="geometry" />
        </mxCell>
        <mxCell id="4pX8vZohO5UuYpyCai0n-34" value="" style="edgeStyle=orthogonalEdgeStyle;rounded=0;orthogonalLoop=1;jettySize=auto;html=1;" edge="1" parent="1" source="4pX8vZohO5UuYpyCai0n-19" target="4pX8vZohO5UuYpyCai0n-33">
          <mxGeometry relative="1" as="geometry" />
        </mxCell>
        <mxCell id="4pX8vZohO5UuYpyCai0n-19" value="press play_collect" style="whiteSpace=wrap;html=1;rounded=0;" vertex="1" parent="1">
          <mxGeometry x="690" y="1260" width="120" height="60" as="geometry" />
        </mxCell>
        <mxCell id="4pX8vZohO5UuYpyCai0n-36" value="" style="edgeStyle=orthogonalEdgeStyle;rounded=0;orthogonalLoop=1;jettySize=auto;html=1;" edge="1" parent="1" source="4pX8vZohO5UuYpyCai0n-33" target="4pX8vZohO5UuYpyCai0n-35">
          <mxGeometry relative="1" as="geometry" />
        </mxCell>
        <mxCell id="4pX8vZohO5UuYpyCai0n-33" value="rounds ++" style="whiteSpace=wrap;html=1;rounded=0;" vertex="1" parent="1">
          <mxGeometry x="690" y="1370" width="120" height="60" as="geometry" />
        </mxCell>
        <mxCell id="4pX8vZohO5UuYpyCai0n-40" value="no" style="edgeStyle=orthogonalEdgeStyle;rounded=0;orthogonalLoop=1;jettySize=auto;html=1;" edge="1" parent="1" source="4pX8vZohO5UuYpyCai0n-35" target="4pX8vZohO5UuYpyCai0n-39">
          <mxGeometry relative="1" as="geometry" />
        </mxCell>
        <mxCell id="4pX8vZohO5UuYpyCai0n-45" style="edgeStyle=orthogonalEdgeStyle;rounded=0;orthogonalLoop=1;jettySize=auto;html=1;" edge="1" parent="1" source="4pX8vZohO5UuYpyCai0n-35">
          <mxGeometry relative="1" as="geometry">
            <mxPoint x="990" y="1620" as="targetPoint" />
          </mxGeometry>
        </mxCell>
        <mxCell id="4pX8vZohO5UuYpyCai0n-51" value="yes" style="edgeLabel;html=1;align=center;verticalAlign=middle;resizable=0;points=[];" vertex="1" connectable="0" parent="4pX8vZohO5UuYpyCai0n-45">
          <mxGeometry x="-0.5163" y="-3" relative="1" as="geometry">
            <mxPoint as="offset" />
          </mxGeometry>
        </mxCell>
        <mxCell id="4pX8vZohO5UuYpyCai0n-35" value="have we reached number of rounds?" style="rhombus;whiteSpace=wrap;html=1;rounded=0;" vertex="1" parent="1">
          <mxGeometry x="670" y="1480" width="160" height="80" as="geometry" />
        </mxCell>
        <mxCell id="4pX8vZohO5UuYpyCai0n-43" value="no" style="edgeStyle=orthogonalEdgeStyle;rounded=0;orthogonalLoop=1;jettySize=auto;html=1;" edge="1" parent="1" source="4pX8vZohO5UuYpyCai0n-39" target="4pX8vZohO5UuYpyCai0n-42">
          <mxGeometry relative="1" as="geometry" />
        </mxCell>
        <mxCell id="4pX8vZohO5UuYpyCai0n-46" style="edgeStyle=orthogonalEdgeStyle;rounded=0;orthogonalLoop=1;jettySize=auto;html=1;" edge="1" parent="1" source="4pX8vZohO5UuYpyCai0n-39">
          <mxGeometry relative="1" as="geometry">
            <mxPoint x="930" y="1660" as="targetPoint" />
          </mxGeometry>
        </mxCell>
        <mxCell id="4pX8vZohO5UuYpyCai0n-50" value="yes" style="edgeLabel;html=1;align=center;verticalAlign=middle;resizable=0;points=[];" vertex="1" connectable="0" parent="4pX8vZohO5UuYpyCai0n-46">
          <mxGeometry x="-0.2438" y="-1" relative="1" as="geometry">
            <mxPoint as="offset" />
          </mxGeometry>
        </mxCell>
        <mxCell id="4pX8vZohO5UuYpyCai0n-39" value="have we reached the target win?" style="rhombus;whiteSpace=wrap;html=1;rounded=0;" vertex="1" parent="1">
          <mxGeometry x="670" y="1620" width="160" height="80" as="geometry" />
        </mxCell>
        <mxCell id="4pX8vZohO5UuYpyCai0n-47" style="edgeStyle=orthogonalEdgeStyle;rounded=0;orthogonalLoop=1;jettySize=auto;html=1;entryX=0.5;entryY=1;entryDx=0;entryDy=0;" edge="1" parent="1" source="4pX8vZohO5UuYpyCai0n-42">
          <mxGeometry relative="1" as="geometry">
            <mxPoint x="990" y="1700" as="targetPoint" />
          </mxGeometry>
        </mxCell>
        <mxCell id="4pX8vZohO5UuYpyCai0n-52" value="yes" style="edgeLabel;html=1;align=center;verticalAlign=middle;resizable=0;points=[];" vertex="1" connectable="0" parent="4pX8vZohO5UuYpyCai0n-47">
          <mxGeometry x="-0.5" y="-2" relative="1" as="geometry">
            <mxPoint as="offset" />
          </mxGeometry>
        </mxCell>
        <mxCell id="4pX8vZohO5UuYpyCai0n-53" value="no" style="edgeStyle=orthogonalEdgeStyle;rounded=0;orthogonalLoop=1;jettySize=auto;html=1;entryX=0;entryY=0.5;entryDx=0;entryDy=0;exitX=0;exitY=0.5;exitDx=0;exitDy=0;" edge="1" parent="1" source="4pX8vZohO5UuYpyCai0n-42" target="4pX8vZohO5UuYpyCai0n-80">
          <mxGeometry relative="1" as="geometry">
            <mxPoint x="660" y="10" as="targetPoint" />
            <mxPoint x="580" y="1820" as="sourcePoint" />
            <Array as="points">
              <mxPoint x="440" y="1800" />
              <mxPoint x="440" />
            </Array>
          </mxGeometry>
        </mxCell>
        <mxCell id="4pX8vZohO5UuYpyCai0n-42" value="have we reached max loss?" style="rhombus;whiteSpace=wrap;html=1;rounded=0;" vertex="1" parent="1">
          <mxGeometry x="670" y="1760" width="170" height="80" as="geometry" />
        </mxCell>
        <mxCell id="4pX8vZohO5UuYpyCai0n-57" value="" style="edgeStyle=orthogonalEdgeStyle;rounded=0;orthogonalLoop=1;jettySize=auto;html=1;" edge="1" parent="1" source="4pX8vZohO5UuYpyCai0n-55" target="4pX8vZohO5UuYpyCai0n-56">
          <mxGeometry relative="1" as="geometry" />
        </mxCell>
        <mxCell id="4pX8vZohO5UuYpyCai0n-55" value="increase bet" style="whiteSpace=wrap;html=1;" vertex="1" parent="1">
          <mxGeometry x="890" y="1110" width="130" height="50" as="geometry" />
        </mxCell>
        <mxCell id="4pX8vZohO5UuYpyCai0n-61" style="edgeStyle=orthogonalEdgeStyle;rounded=0;orthogonalLoop=1;jettySize=auto;html=1;exitX=0.5;exitY=1;exitDx=0;exitDy=0;entryX=1;entryY=0.5;entryDx=0;entryDy=0;" edge="1" parent="1" source="4pX8vZohO5UuYpyCai0n-56" target="4pX8vZohO5UuYpyCai0n-80">
          <mxGeometry relative="1" as="geometry">
            <mxPoint x="1065.0588235294117" y="1284.9783281733744" as="sourcePoint" />
            <mxPoint x="970" y="240" as="targetPoint" />
            <Array as="points">
              <mxPoint x="955" y="1335" />
              <mxPoint x="1280" y="1335" />
              <mxPoint x="1280" />
            </Array>
          </mxGeometry>
        </mxCell>
        <mxCell id="4pX8vZohO5UuYpyCai0n-62" value="yes" style="edgeLabel;html=1;align=center;verticalAlign=middle;resizable=0;points=[];" vertex="1" connectable="0" parent="4pX8vZohO5UuYpyCai0n-61">
          <mxGeometry y="-2" relative="1" as="geometry">
            <mxPoint as="offset" />
          </mxGeometry>
        </mxCell>
        <mxCell id="4pX8vZohO5UuYpyCai0n-64" value="await 2s" style="edgeLabel;html=1;align=center;verticalAlign=middle;resizable=0;points=[];" vertex="1" connectable="0" parent="4pX8vZohO5UuYpyCai0n-61">
          <mxGeometry x="0.2491" relative="1" as="geometry">
            <mxPoint as="offset" />
          </mxGeometry>
        </mxCell>
        <mxCell id="4pX8vZohO5UuYpyCai0n-68" style="edgeStyle=orthogonalEdgeStyle;rounded=0;orthogonalLoop=1;jettySize=auto;html=1;entryX=0;entryY=0.5;entryDx=0;entryDy=0;" edge="1" parent="1" source="4pX8vZohO5UuYpyCai0n-56" target="4pX8vZohO5UuYpyCai0n-67">
          <mxGeometry relative="1" as="geometry" />
        </mxCell>
        <mxCell id="4pX8vZohO5UuYpyCai0n-56" value="is bet the corresponding&amp;nbsp;&lt;div&gt;try value for set mode?&lt;/div&gt;" style="rhombus;whiteSpace=wrap;html=1;" vertex="1" parent="1">
          <mxGeometry x="860" y="1200" width="190" height="70" as="geometry" />
        </mxCell>
        <mxCell id="4pX8vZohO5UuYpyCai0n-66" value="END GAME" style="shape=parallelogram;perimeter=parallelogramPerimeter;whiteSpace=wrap;html=1;fixedSize=1;" vertex="1" parent="1">
          <mxGeometry x="920" y="1620" width="150" height="80" as="geometry" />
        </mxCell>
        <mxCell id="4pX8vZohO5UuYpyCai0n-70" style="edgeStyle=orthogonalEdgeStyle;rounded=0;orthogonalLoop=1;jettySize=auto;html=1;entryX=1;entryY=0.5;entryDx=0;entryDy=0;" edge="1" parent="1" source="4pX8vZohO5UuYpyCai0n-67" target="4pX8vZohO5UuYpyCai0n-55">
          <mxGeometry relative="1" as="geometry">
            <mxPoint x="1185.0000000000005" y="1130" as="targetPoint" />
            <Array as="points">
              <mxPoint x="1185" y="1135" />
            </Array>
          </mxGeometry>
        </mxCell>
        <mxCell id="4pX8vZohO5UuYpyCai0n-71" value="no" style="edgeLabel;html=1;align=center;verticalAlign=middle;resizable=0;points=[];" vertex="1" connectable="0" parent="4pX8vZohO5UuYpyCai0n-70">
          <mxGeometry x="-0.268" y="1" relative="1" as="geometry">
            <mxPoint x="28" y="24" as="offset" />
          </mxGeometry>
        </mxCell>
        <mxCell id="4pX8vZohO5UuYpyCai0n-72" value="await 1s" style="edgeLabel;html=1;align=center;verticalAlign=middle;resizable=0;points=[];" vertex="1" connectable="0" parent="4pX8vZohO5UuYpyCai0n-70">
          <mxGeometry x="0.273" y="1" relative="1" as="geometry">
            <mxPoint as="offset" />
          </mxGeometry>
        </mxCell>
        <mxCell id="4pX8vZohO5UuYpyCai0n-74" style="edgeStyle=orthogonalEdgeStyle;rounded=0;orthogonalLoop=1;jettySize=auto;html=1;" edge="1" parent="1" source="4pX8vZohO5UuYpyCai0n-67">
          <mxGeometry relative="1" as="geometry">
            <mxPoint x="1279.9999999999995" y="960" as="targetPoint" />
          </mxGeometry>
        </mxCell>
        <mxCell id="4pX8vZohO5UuYpyCai0n-67" value="is it higher than the length of the mode array&lt;span style=&quot;background-color: transparent; color: light-dark(rgb(0, 0, 0), rgb(255, 255, 255));&quot;&gt;?&lt;/span&gt;" style="rhombus;whiteSpace=wrap;html=1;" vertex="1" parent="1">
          <mxGeometry x="1110" y="1187.5" width="150" height="95" as="geometry" />
        </mxCell>
        <mxCell id="4pX8vZohO5UuYpyCai0n-84" style="edgeStyle=orthogonalEdgeStyle;rounded=0;orthogonalLoop=1;jettySize=auto;html=1;entryX=1;entryY=0.5;entryDx=0;entryDy=0;" edge="1" parent="1" source="4pX8vZohO5UuYpyCai0n-75" target="4pX8vZohO5UuYpyCai0n-80">
          <mxGeometry relative="1" as="geometry">
            <Array as="points">
              <mxPoint x="890" y="153" />
              <mxPoint x="890" />
            </Array>
          </mxGeometry>
        </mxCell>
        <mxCell id="4pX8vZohO5UuYpyCai0n-85" value="no" style="edgeLabel;html=1;align=center;verticalAlign=middle;resizable=0;points=[];" vertex="1" connectable="0" parent="4pX8vZohO5UuYpyCai0n-84">
          <mxGeometry x="0.0894" y="-4" relative="1" as="geometry">
            <mxPoint x="-4" y="60" as="offset" />
          </mxGeometry>
        </mxCell>
        <mxCell id="4pX8vZohO5UuYpyCai0n-86" value="await 1s" style="edgeLabel;html=1;align=center;verticalAlign=middle;resizable=0;points=[];" vertex="1" connectable="0" parent="4pX8vZohO5UuYpyCai0n-84">
          <mxGeometry x="0.0829" y="-2" relative="1" as="geometry">
            <mxPoint as="offset" />
          </mxGeometry>
        </mxCell>
        <mxCell id="4pX8vZohO5UuYpyCai0n-75" value="is bet 0.10?" style="rhombus;whiteSpace=wrap;html=1;rounded=0;" vertex="1" parent="1">
          <mxGeometry x="685" y="110" width="130" height="85" as="geometry" />
        </mxCell>
        <mxCell id="4pX8vZohO5UuYpyCai0n-83" style="edgeStyle=orthogonalEdgeStyle;rounded=0;orthogonalLoop=1;jettySize=auto;html=1;entryX=0.5;entryY=0;entryDx=0;entryDy=0;" edge="1" parent="1" source="4pX8vZohO5UuYpyCai0n-80" target="4pX8vZohO5UuYpyCai0n-75">
          <mxGeometry relative="1" as="geometry" />
        </mxCell>
        <mxCell id="4pX8vZohO5UuYpyCai0n-80" value="decrease bet" style="rounded=0;whiteSpace=wrap;html=1;" vertex="1" parent="1">
          <mxGeometry x="690" y="-30" width="120" height="60" as="geometry" />
        </mxCell>
      </root>
    </mxGraphModel>
  </diagram>
</mxfile>
